<svg xmlns="http://www.w3.org/2000/svg" width="36.7" height="64.376" viewBox="0 0 36.7 64.376">
  <g id="fries" transform="translate(-110.055)">
    <path id="Path_65" data-name="Path 65" d="M118.6,77.552l-8.542,7.358v33.4l24.025,13.871,12.675-4.971V93.81Z" transform="translate(0 -67.801)" fill="#ff3502"/>
    <path id="Path_66" data-name="Path 66" d="M146.755,93.81,134.08,98.781,110.055,84.91l8.542-7.358Z" transform="translate(0 -67.801)" fill="#d8d8da"/>
    <g id="Group_19" data-name="Group 19" transform="translate(113.297)">
      <path id="Path_67" data-name="Path 67" d="M140.077,0l-4.235,2.461V39.706l4.262,2.461,4.235-2.461V2.461Z" transform="translate(-135.842)" fill="#ddb201"/>
      <path id="Path_68" data-name="Path 68" d="M173.977,19.573V56.818l-4.235,2.461V22.034Z" transform="translate(-165.48 -17.112)" fill="#ddb201"/>
    </g>
    <path id="Path_69" data-name="Path 69" d="M140.1,22.034V59.279l-4.262-2.461V19.573Z" transform="translate(-22.545 -17.112)" fill="#eebf00"/>
    <path id="Path_70" data-name="Path 70" d="M144.339,2.461,140.1,4.922l-4.262-2.461L140.077,0Z" transform="translate(-22.545)" fill="#fece00"/>
    <g id="Group_20" data-name="Group 20" transform="translate(120.945 3.469)">
      <path id="Path_71" data-name="Path 71" d="M200.9,27.587l-4.235,2.461V67.293l4.263,2.461,4.235-2.461V30.048Z" transform="translate(-196.664 -27.587)" fill="#ddb201"/>
      <path id="Path_72" data-name="Path 72" d="M234.8,47.16V84.4l-4.235,2.461V49.621Z" transform="translate(-226.302 -44.699)" fill="#ddb201"/>
    </g>
    <path id="Path_73" data-name="Path 73" d="M200.927,49.621V86.866L196.664,84.4V47.16Z" transform="translate(-75.719 -41.23)" fill="#eebf00"/>
    <path id="Path_74" data-name="Path 74" d="M205.161,30.048l-4.235,2.461-4.263-2.461,4.235-2.461Z" transform="translate(-75.719 -24.118)" fill="#fece00"/>
    <g id="Group_21" data-name="Group 21" transform="translate(128.226 8.39)">
      <path id="Path_75" data-name="Path 75" d="M258.809,66.732l-4.235,2.461v37.245l4.262,2.461,4.235-2.461V69.193Z" transform="translate(-254.574 -66.732)" fill="#ddb201"/>
      <path id="Path_76" data-name="Path 76" d="M292.709,86.3v37.245l-4.235,2.461V88.765Z" transform="translate(-284.212 -83.843)" fill="#ddb201"/>
    </g>
    <path id="Path_77" data-name="Path 77" d="M258.836,88.766v37.245l-4.262-2.461V86.305Z" transform="translate(-126.348 -75.454)" fill="#eebf00"/>
    <path id="Path_78" data-name="Path 78" d="M263.071,69.193l-4.235,2.461-4.262-2.461,4.235-2.461Z" transform="translate(-126.348 -58.342)" fill="#fece00"/>
    <g id="Group_22" data-name="Group 22" transform="translate(135.861 13.311)">
      <path id="Path_79" data-name="Path 79" d="M319.535,105.868l-4.235,2.461v37.245l4.262,2.461,4.235-2.461V108.329Z" transform="translate(-315.3 -105.868)" fill="#ddb201"/>
      <path id="Path_80" data-name="Path 80" d="M353.435,125.439v37.245l-4.235,2.461V127.9Z" transform="translate(-344.938 -122.978)" fill="#ddb201"/>
    </g>
    <path id="Path_81" data-name="Path 81" d="M319.562,127.9v37.245l-4.262-2.461V125.44Z" transform="translate(-179.439 -109.668)" fill="#eebf00"/>
    <path id="Path_82" data-name="Path 82" d="M323.8,108.329l-4.235,2.461-4.262-2.461,4.235-2.461Z" transform="translate(-179.439 -92.557)" fill="#fece00"/>
    <g id="Group_23" data-name="Group 23" transform="translate(113.311 6.393)">
      <path id="Path_83" data-name="Path 83" d="M140.187,50.847l-4.235,2.461V90.553l4.262,2.461,4.235-2.461V53.308Z" transform="translate(-135.952 -50.847)" fill="#ddb201"/>
      <path id="Path_84" data-name="Path 84" d="M174.087,70.42v37.245l-4.235,2.461V72.881Z" transform="translate(-165.59 -67.959)" fill="#ddb201"/>
    </g>
    <path id="Path_85" data-name="Path 85" d="M140.214,72.881v37.245l-4.262-2.461V70.42Z" transform="translate(-22.641 -61.566)" fill="#eebf00"/>
    <path id="Path_86" data-name="Path 86" d="M144.449,53.308l-4.235,2.461-4.262-2.461,4.235-2.461Z" transform="translate(-22.641 -44.454)" fill="#fece00"/>
    <g id="Group_24" data-name="Group 24" transform="translate(120.945 11.655)">
      <path id="Path_87" data-name="Path 87" d="M200.9,92.7l-4.235,2.461V132.4l4.263,2.461,4.235-2.461V95.156Z" transform="translate(-196.664 -92.695)" fill="#ddb201"/>
      <path id="Path_88" data-name="Path 88" d="M234.8,112.267v37.245l-4.235,2.461V114.728Z" transform="translate(-226.302 -109.806)" fill="#ddb201"/>
    </g>
    <path id="Path_89" data-name="Path 89" d="M200.927,114.728v37.245l-4.263-2.461V112.267Z" transform="translate(-75.719 -98.151)" fill="#eebf00"/>
    <path id="Path_90" data-name="Path 90" d="M205.161,95.156l-4.235,2.461-4.263-2.461L200.9,92.7Z" transform="translate(-75.719 -81.04)" fill="#fece00"/>
    <g id="Group_25" data-name="Group 25" transform="translate(129.442 16.577)">
      <path id="Path_91" data-name="Path 91" d="M268.48,131.84l-4.235,2.461v37.245l4.262,2.461,4.235-2.461V134.3Z" transform="translate(-264.245 -131.84)" fill="#ddb201"/>
      <path id="Path_92" data-name="Path 92" d="M302.38,151.412v37.245l-4.235,2.461V153.873Z" transform="translate(-293.883 -148.951)" fill="#ddb201"/>
    </g>
    <path id="Path_93" data-name="Path 93" d="M268.507,153.874v37.245l-4.262-2.461V151.413Z" transform="translate(-134.803 -132.375)" fill="#eebf00"/>
    <path id="Path_94" data-name="Path 94" d="M272.742,134.3l-4.235,2.461-4.262-2.461,4.235-2.461Z" transform="translate(-134.803 -115.263)" fill="#fece00"/>
    <g id="Group_26" data-name="Group 26" transform="translate(110.055 17.109)">
      <path id="Path_95" data-name="Path 95" d="M134.08,149.941,110.055,136.07v33.4l24.025,13.871,12.675-4.971v-33.4Z" transform="translate(-110.055 -136.07)" fill="#cd2a01"/>
      <path id="Path_96" data-name="Path 96" d="M313.812,206.853v33.4l-12.675,4.971v-33.4Z" transform="translate(-277.112 -197.953)" fill="#cd2a01"/>
    </g>
    <path id="Path_97" data-name="Path 97" d="M134.08,149.941v33.4l-24.025-13.871v-33.4Z" transform="translate(0 -118.961)" fill="#ff3502"/>
  </g>
</svg>
