<svg xmlns="http://www.w3.org/2000/svg" width="154.395" height="155" viewBox="0 0 154.395 155">
  <g id="soup" transform="translate(-0.999 0)">
    <path id="Path_1" data-name="Path 1" d="M418.246,95h-3.714a18.164,18.164,0,0,0-17.7,14.08L391,134.356h18.164l4.89-21.191h4.192a9.082,9.082,0,0,0,0-18.164Z" transform="translate(-271.934 -66.24)" fill="#005457"/>
    <path id="Path_2" data-name="Path 2" d="M202.143,437.308h-66.6a4.541,4.541,0,0,1-4.308-5.977l7.782-23.347a4.541,4.541,0,0,1,4.308-3.105h51.037a4.541,4.541,0,0,1,4.308,3.105l7.782,23.347a4.541,4.541,0,0,1-4.308,5.977Z" transform="translate(-90.646 -282.308)" fill="#005457"/>
    <path id="Path_3" data-name="Path 3" d="M289.3,437.308a4.541,4.541,0,0,0,4.308-5.977l-7.782-23.347a4.541,4.541,0,0,0-4.308-3.105H256v32.429Z" transform="translate(-177.803 -282.308)" fill="#05303d"/>
    <path id="Path_4" data-name="Path 4" d="M15.944,274.541a77.841,77.841,0,0,0,145.347,0V270H15.944Z" transform="translate(-10.421 -188.262)" fill="#007578"/>
    <g id="Group_1" data-name="Group 1" transform="translate(78.197 81.738)">
      <path id="Path_5" data-name="Path 5" d="M256,270v54.492a77.84,77.84,0,0,0,72.674-49.951V270Z" transform="translate(-256 -270)" fill="#005457"/>
    </g>
    <path id="Path_6" data-name="Path 6" d="M155.257,215.823l.091-.639a4.542,4.542,0,0,0-4.5-5.184H5.54a4.541,4.541,0,0,0-4.5,5.184l.091.638a77.823,77.823,0,0,0,4.387,16.883H150.87A77.818,77.818,0,0,0,155.257,215.823Z" transform="translate(0 -146.426)" fill="#ff8659"/>
    <path id="Path_7" data-name="Path 7" d="M239.582,36.328a4.529,4.529,0,0,1-3.4-1.524,14.8,14.8,0,0,1,0-19.657,5.714,5.714,0,0,0,0-7.59,4.541,4.541,0,0,1,6.788-6.034,14.8,14.8,0,0,1,0,19.657,5.714,5.714,0,0,0,0,7.59,4.541,4.541,0,0,1-3.392,7.558Z" transform="translate(-161.383 0)" fill="#f9f1f1"/>
    <path id="Path_8" data-name="Path 8" d="M169.582,36.328a4.529,4.529,0,0,1-3.4-1.524,14.8,14.8,0,0,1,0-19.657,5.714,5.714,0,0,0,0-7.59,4.541,4.541,0,0,1,6.788-6.034,14.8,14.8,0,0,1,0,19.657,5.714,5.714,0,0,0,0,7.59,4.541,4.541,0,0,1-3.392,7.558Z" transform="translate(-112.575 0)" fill="#f9f1f1"/>
    <path id="Path_9" data-name="Path 9" d="M309.582,36.328a4.529,4.529,0,0,1-3.4-1.524,14.8,14.8,0,0,1,0-19.657,5.714,5.714,0,0,0,0-7.59,4.541,4.541,0,0,1,6.788-6.034,14.8,14.8,0,0,1,0,19.657,5.714,5.714,0,0,0,0,7.59,4.541,4.541,0,0,1-3.392,7.558Z" transform="translate(-210.192 0)" fill="#e2dff4"/>
    <g id="Group_4" data-name="Group 4" transform="translate(78.197 0.005)">
      <path id="Path_10" data-name="Path 10" d="M418.246,95h-3.714a18.164,18.164,0,0,0-17.7,14.08L391,134.356h18.164l4.89-21.191h4.192a9.082,9.082,0,0,0,0-18.164Z" transform="translate(-350.131 -66.245)" fill="#005457"/>
      <g id="Group_2" data-name="Group 2" transform="translate(0)">
        <path id="Path_11" data-name="Path 11" d="M259.395,21.192a14.8,14.8,0,0,0,0-19.657A4.524,4.524,0,0,0,256,.016V36.339h0a4.541,4.541,0,0,0,3.392-7.558A5.714,5.714,0,0,1,259.395,21.192Z" transform="translate(-256.001 -0.016)" fill="#e2dff4"/>
      </g>
      <g id="Group_3" data-name="Group 3" transform="translate(0 63.569)">
        <path id="Path_12" data-name="Path 12" d="M332.087,211.566A4.542,4.542,0,0,0,328.656,210H256v22.705h72.673a77.822,77.822,0,0,0,4.387-16.883l.091-.639A4.54,4.54,0,0,0,332.087,211.566Z" transform="translate(-256 -210)" fill="#ff4a4a"/>
      </g>
    </g>
  </g>
</svg>
