<svg xmlns="http://www.w3.org/2000/svg" width="80.345" height="64.774" viewBox="0 0 80.345 64.774">
  <g id="pancake" transform="translate(-0.001 -49.616)">
    <path id="Path_16" data-name="Path 16" d="M80.336,171.984a17.631,17.631,0,0,0-.3-2.507c-.131-.6-.325-1.391-.52-1.971a21.1,21.1,0,0,0-.857-2.12,27.826,27.826,0,0,0-1.458-2.523c-.246-.391-.637-.869-.911-1.241a15.655,15.655,0,0,0-1.095-1.287c-.508-.54-1.207-1.242-1.754-1.742a29.976,29.976,0,0,0-3.278-2.573c-.68-.451-1.6-1.038-2.3-1.45-.643-.377-1.52-.845-2.186-1.179-.747-.375-1.761-.84-2.53-1.168-.737-.315-1.73-.715-2.488-.974-.8-.275-1.876-.641-2.689-.886s-1.9-.537-2.715-.738c-.841-.207-1.97-.453-2.82-.618s-2-.379-2.868-.486-2.038-.27-2.915-.357-2.065-.2-2.954-.227-2.078-.087-2.969-.1-2.083.025-2.976.036-2.075.112-2.964.167-2.075.19-2.961.3c-.9.114-2.1.291-3,.449a58.109,58.109,0,0,0-5.8,1.316c-1.57.445-3.64,1.135-5.151,1.752-.842.343-1.952.833-2.773,1.225-.683.326-1.565.815-2.236,1.165h0c-.8.459-1.852,1.089-2.611,1.608a31.264,31.264,0,0,0-2.614,1.969c-.839.731-1.917,1.755-2.67,2.575a25.956,25.956,0,0,0-1.821,2.316c-.267.377-.589.9-.819,1.3s-.518.957-.719,1.378a22.906,22.906,0,0,0-.965,2.543,13.017,13.017,0,0,0-.44,1.939A23.173,23.173,0,0,0,0,172.406a16.808,16.808,0,0,0,.089,1.72c.035.378.125.876.183,1.251a14.972,14.972,0,0,0,.494,1.965,17.226,17.226,0,0,0,.823,2.107,22.357,22.357,0,0,0,1.418,2.522,28.815,28.815,0,0,0,1.932,2.5,27.107,27.107,0,0,0,1.976,1.985c.922.84,2.265,1.829,3.271,2.565.536.392,1.3.846,1.866,1.193a29.509,29.509,0,0,0,2.617,1.433c.757.355,1.761.84,2.53,1.168.737.315,1.728.719,2.488.974.8.271,1.876.641,2.689.885s1.9.537,2.715.738c.841.207,1.97.453,2.82.618s2.005.355,2.868.486,2.034.269,2.91.356,2.07.179,2.959.227,2.078.087,2.969.1,2.083-.024,2.976-.036,2.076-.1,2.964-.167,2.073-.21,2.961-.3c.9-.093,2.105-.276,3-.449,1.679-.326,3.916-.789,5.563-1.25.862-.241,2-.593,2.853-.879.768-.259,1.777-.65,2.535-.939.85-.324,1.952-.833,2.773-1.225.683-.326,1.566-.814,2.236-1.165a30.017,30.017,0,0,0,2.611-1.608c.54-.367,1.251-.868,1.759-1.277.7-.562,1.6-1.354,2.26-1.956a21.81,21.81,0,0,0,2.148-2.355c.3-.371.673-.879.939-1.272.285-.422.659-.991.9-1.441.2-.37.477-.854.641-1.24.319-.751.73-1.762.965-2.543.172-.571.331-1.353.44-1.939a10.168,10.168,0,0,0,.155-1.258C80.319,173.322,80.369,172.557,80.336,171.984Z" transform="translate(0 -82.809)" fill="#ffb657"/>
    <path id="Path_17" data-name="Path 17" d="M32.616,157.767c14.579-8.181,37.886-7.946,52.058.526s13.841,21.971-.739,30.152-37.886,7.946-52.058-.526S18.037,165.947,32.616,157.767Z" transform="translate(-18.093 -86.134)" fill="#f91"/>
    <path id="Path_18" data-name="Path 18" d="M12.055,190.212c-.566-.348-1.33-.8-1.866-1.193-1.007-.736-2.349-1.725-3.271-2.565a27.107,27.107,0,0,1-1.976-1.985,28.847,28.847,0,0,1-1.932-2.5,22.335,22.335,0,0,1-1.418-2.522,17.2,17.2,0,0,1-.823-2.107,14.971,14.971,0,0,1-.494-1.965C.217,175,.127,174.5.093,174.125A16.759,16.759,0,0,1,0,172.405a23.133,23.133,0,0,1,.209-2.523,13.016,13.016,0,0,1,.44-1.939,22.912,22.912,0,0,1,.965-2.543c.2-.421.487-.973.719-1.378s.552-.927.819-1.3A26.011,26.011,0,0,1,4.978,160.4c.753-.82,1.831-1.844,2.67-2.575a31.265,31.265,0,0,1,2.614-1.969c.759-.52,1.814-1.15,2.611-1.608a1.64,1.64,0,0,1,1.651.191c-14.579,8.181-14.91,21.681-.739,30.152s37.478,8.707,52.058.526,14.91-21.681.739-30.152-37.478-8.707-52.058-.526a1.64,1.64,0,0,0-1.651-.191h0c.671-.35,1.553-.839,2.236-1.165.821-.392,1.931-.881,2.773-1.225,1.511-.616,3.58-1.307,5.151-1.752a58.023,58.023,0,0,1,5.8-1.316c.9-.157,2.1-.335,3-.449.886-.112,2.07-.246,2.961-.3s2.073-.157,2.964-.167,2.083-.045,2.976-.036,2.079.067,2.969.1,2.069.139,2.954.227,2.04.248,2.915.357,2.011.32,2.868.486,1.979.411,2.82.618c.819.2,1.906.5,2.715.738s1.885.611,2.689.886c.759.259,1.751.66,2.488.974.769.328,1.783.793,2.53,1.168.666.334,1.543.8,2.186,1.179.7.413,1.622,1,2.3,1.45a29.98,29.98,0,0,1,3.278,2.573c.547.5,1.246,1.2,1.754,1.742A15.742,15.742,0,0,1,76.3,161.62c.274.372.665.85.911,1.241a27.783,27.783,0,0,1,1.458,2.523,21.155,21.155,0,0,1,.857,2.12c.195.58.388,1.374.52,1.971a17.631,17.631,0,0,1,.3,2.507c.033.572-.017,1.338-.043,1.911a10.14,10.14,0,0,1-.155,1.258c-.109.586-.268,1.368-.44,1.939-.235.781-.646,1.792-.965,2.543-.164.386-.445.87-.641,1.24-.239.45-.612,1.02-.9,1.441-.266.393-.644.9-.939,1.272a21.824,21.824,0,0,1-2.148,2.355c-.664.6-1.561,1.394-2.26,1.956-.508.409-1.22.91-1.759,1.277a29.977,29.977,0,0,1-2.611,1.608c-.67.351-1.553.839-2.236,1.165-.821.392-1.923.9-2.773,1.225-.758.288-1.766.68-2.535.939-.848.286-1.99.637-2.853.879-1.647.461-3.884.924-5.563,1.25-.893.173-2.093.356-3,.449-.888.091-2.071.231-2.961.3s-2.073.156-2.964.167-2.083.045-2.976.036-2.079-.047-2.969-.1-2.073-.139-2.959-.227-2.04-.223-2.91-.356-2.011-.32-2.868-.486-1.979-.411-2.82-.618c-.819-.2-1.906-.5-2.715-.738s-1.884-.615-2.689-.885c-.76-.256-1.751-.66-2.488-.974-.769-.328-1.773-.813-2.53-1.168A29.422,29.422,0,0,1,12.055,190.212Z" transform="translate(-0.001 -82.808)" fill="#ffa834"/>
    <path id="Path_19" data-name="Path 19" d="M80.336,122.874a17.631,17.631,0,0,0-.3-2.507c-.131-.6-.325-1.391-.52-1.971a21.1,21.1,0,0,0-.857-2.12,27.826,27.826,0,0,0-1.458-2.523c-.246-.391-.637-.869-.911-1.241a15.657,15.657,0,0,0-1.095-1.287c-.508-.54-1.207-1.242-1.754-1.742a29.98,29.98,0,0,0-3.278-2.573c-.68-.451-1.6-1.038-2.3-1.45-.643-.377-1.52-.845-2.186-1.179-.747-.375-1.761-.84-2.53-1.168-.737-.315-1.73-.715-2.488-.974-.8-.275-1.876-.641-2.689-.886s-1.9-.537-2.715-.738c-.841-.207-1.97-.453-2.82-.618s-2-.379-2.868-.486-2.038-.27-2.915-.357-2.065-.2-2.954-.227-2.078-.087-2.969-.1-2.083.025-2.976.036-2.075.112-2.964.167-2.075.19-2.961.3c-.9.114-2.1.291-3,.449a58.122,58.122,0,0,0-5.8,1.316c-1.57.445-3.64,1.135-5.151,1.752-.842.343-1.952.833-2.773,1.225-.683.326-1.565.815-2.236,1.165h0c-.8.459-1.852,1.089-2.611,1.608a31.258,31.258,0,0,0-2.614,1.969c-.839.731-1.917,1.755-2.67,2.575a25.965,25.965,0,0,0-1.821,2.316c-.267.377-.589.9-.819,1.3s-.518.957-.719,1.378a22.9,22.9,0,0,0-.965,2.543,13.017,13.017,0,0,0-.44,1.939A23.172,23.172,0,0,0,0,123.3a16.809,16.809,0,0,0,.089,1.72c.035.378.125.876.183,1.251a14.971,14.971,0,0,0,.494,1.965,17.225,17.225,0,0,0,.823,2.107,22.359,22.359,0,0,0,1.418,2.522,28.821,28.821,0,0,0,1.932,2.5,27.109,27.109,0,0,0,1.976,1.985c.922.84,2.265,1.829,3.271,2.565.536.392,1.3.846,1.866,1.193a29.513,29.513,0,0,0,2.617,1.433c.757.355,1.761.84,2.53,1.168.737.315,1.728.719,2.488.974.8.271,1.876.641,2.689.885s1.9.537,2.715.738c.841.207,1.97.453,2.82.618s2.005.355,2.868.486,2.034.269,2.91.356,2.07.179,2.959.227,2.078.087,2.969.1,2.083-.024,2.976-.036,2.076-.1,2.964-.167,2.073-.21,2.961-.3c.9-.093,2.105-.276,3-.449,1.679-.326,3.916-.789,5.563-1.25.862-.242,2-.593,2.853-.879.768-.259,1.777-.65,2.535-.939.85-.324,1.952-.833,2.773-1.225.683-.326,1.566-.814,2.236-1.165a30.017,30.017,0,0,0,2.611-1.608c.54-.367,1.251-.868,1.759-1.277.7-.562,1.6-1.354,2.26-1.956a21.81,21.81,0,0,0,2.148-2.355c.3-.371.673-.879.939-1.272.285-.422.659-.991.9-1.442.2-.37.477-.854.641-1.24.319-.751.73-1.762.965-2.543.172-.571.331-1.353.44-1.939a10.167,10.167,0,0,0,.155-1.258C80.319,124.212,80.369,123.447,80.336,122.874Z" transform="translate(0 -41.405)" fill="#ffb657"/>
    <path id="Path_20" data-name="Path 20" d="M32.616,108.656c14.579-8.181,37.886-7.946,52.058.526s13.841,21.971-.739,30.152-37.886,7.946-52.058-.526S18.037,116.836,32.616,108.656Z" transform="translate(-18.093 -44.729)" fill="#f91"/>
    <g id="Group_9" data-name="Group 9" transform="translate(0.001 49.616)">
      <path id="Path_21" data-name="Path 21" d="M12.055,141.1c-.566-.348-1.33-.8-1.866-1.193-1.007-.736-2.349-1.725-3.271-2.565a27.1,27.1,0,0,1-1.976-1.985,28.847,28.847,0,0,1-1.932-2.5,22.334,22.334,0,0,1-1.418-2.522,17.2,17.2,0,0,1-.823-2.107,14.971,14.971,0,0,1-.494-1.965c-.058-.375-.148-.873-.183-1.251A16.762,16.762,0,0,1,0,123.294a23.094,23.094,0,0,1,.209-2.523,13.017,13.017,0,0,1,.44-1.939,22.909,22.909,0,0,1,.965-2.543c.2-.421.487-.973.719-1.378s.552-.927.819-1.3a26.015,26.015,0,0,1,1.821-2.316c.753-.82,1.831-1.844,2.67-2.575a31.258,31.258,0,0,1,2.614-1.969c.759-.52,1.814-1.15,2.611-1.608a1.64,1.64,0,0,1,1.651.191c-14.579,8.181-14.91,21.681-.739,30.152s37.478,8.707,52.058.526,14.91-21.681.739-30.152S29.1,97.149,14.524,105.33a1.64,1.64,0,0,0-1.651-.191h0c.671-.35,1.553-.839,2.236-1.165.821-.392,1.931-.881,2.773-1.225,1.511-.616,3.58-1.307,5.151-1.752a58.019,58.019,0,0,1,5.8-1.316c.9-.157,2.1-.335,3-.449.886-.112,2.07-.246,2.961-.3s2.073-.157,2.964-.167,2.083-.045,2.976-.036,2.079.067,2.969.1,2.069.139,2.954.227,2.04.248,2.915.357,2.011.32,2.868.486,1.979.411,2.82.618c.819.2,1.906.5,2.715.738s1.885.611,2.689.886c.759.259,1.751.66,2.488.974.769.328,1.783.793,2.53,1.168.666.334,1.543.8,2.186,1.179.7.413,1.622,1,2.3,1.45a29.962,29.962,0,0,1,3.278,2.573c.547.5,1.246,1.2,1.754,1.742a15.743,15.743,0,0,1,1.095,1.287c.274.372.665.85.911,1.241a27.745,27.745,0,0,1,1.458,2.523,21.157,21.157,0,0,1,.857,2.12c.195.58.388,1.374.52,1.971a17.631,17.631,0,0,1,.3,2.507c.033.572-.017,1.338-.043,1.911a10.14,10.14,0,0,1-.155,1.258c-.109.586-.268,1.368-.44,1.939-.235.781-.646,1.792-.965,2.543-.164.386-.445.87-.641,1.24-.239.45-.612,1.02-.9,1.442-.266.393-.644.9-.939,1.272a21.827,21.827,0,0,1-2.148,2.355c-.664.6-1.561,1.394-2.26,1.956-.508.409-1.22.91-1.759,1.277a29.982,29.982,0,0,1-2.611,1.608c-.67.351-1.553.839-2.236,1.165-.821.392-1.923.9-2.773,1.225-.758.288-1.766.68-2.535.939-.848.286-1.99.637-2.853.879-1.647.461-3.884.924-5.563,1.25-.893.173-2.093.356-3,.449-.888.091-2.071.231-2.961.3s-2.073.156-2.964.167-2.083.045-2.976.036-2.079-.047-2.969-.1-2.073-.139-2.959-.227-2.04-.223-2.91-.356-2.011-.32-2.868-.486-1.979-.411-2.82-.618c-.819-.2-1.906-.5-2.715-.738s-1.884-.615-2.689-.885c-.76-.256-1.751-.66-2.488-.974-.769-.328-1.773-.814-2.53-1.168A29.332,29.332,0,0,1,12.055,141.1Z" transform="translate(-0.002 -91.019)" fill="#ffb657"/>
      <path id="Path_22" data-name="Path 22" d="M80.336,73.764a17.63,17.63,0,0,0-.3-2.507c-.131-.6-.325-1.391-.52-1.971a21.1,21.1,0,0,0-.857-2.12,27.826,27.826,0,0,0-1.458-2.523c-.246-.391-.637-.869-.911-1.241A15.655,15.655,0,0,0,75.2,62.114c-.508-.54-1.207-1.242-1.754-1.742A29.981,29.981,0,0,0,70.168,57.8c-.68-.451-1.6-1.038-2.3-1.45-.643-.377-1.52-.845-2.186-1.179-.747-.375-1.761-.84-2.53-1.168-.737-.315-1.73-.715-2.488-.974-.8-.275-1.876-.641-2.689-.886s-1.9-.537-2.715-.738c-.841-.207-1.97-.453-2.82-.618s-2-.379-2.868-.486-2.038-.27-2.915-.357-2.065-.2-2.954-.227-2.078-.087-2.969-.1-2.083.025-2.976.036-2.075.112-2.964.167-2.075.19-2.961.3c-.9.114-2.1.291-3,.449a58.12,58.12,0,0,0-5.8,1.316c-1.57.445-3.64,1.136-5.151,1.752-.842.343-1.952.833-2.773,1.225-.683.326-1.565.815-2.236,1.165h0c-.8.459-1.852,1.089-2.611,1.608a31.258,31.258,0,0,0-2.614,1.969,37.093,37.093,0,0,0-2.67,2.575A25.962,25.962,0,0,0,3.156,64.5c-.267.377-.589.9-.819,1.3s-.518.957-.719,1.378a22.9,22.9,0,0,0-.965,2.543,13.017,13.017,0,0,0-.44,1.939A23.172,23.172,0,0,0,0,74.186a16.809,16.809,0,0,0,.089,1.72c.035.378.125.876.183,1.251a14.969,14.969,0,0,0,.494,1.965,17.224,17.224,0,0,0,.823,2.107A22.357,22.357,0,0,0,3.009,83.75a28.819,28.819,0,0,0,1.932,2.5,27.106,27.106,0,0,0,1.976,1.985c.922.84,2.265,1.829,3.271,2.565.536.392,1.3.846,1.866,1.193a29.513,29.513,0,0,0,2.617,1.433c.757.354,1.761.84,2.53,1.168.737.315,1.728.719,2.488.974.8.271,1.876.641,2.689.886s1.9.537,2.715.738c.841.207,1.97.453,2.82.618s2.005.355,2.868.486,2.034.269,2.91.356,2.07.179,2.959.227,2.078.087,2.969.1,2.083-.024,2.976-.036,2.076-.1,2.964-.167,2.073-.21,2.961-.3c.9-.093,2.105-.276,3-.449,1.679-.326,3.916-.789,5.563-1.25.862-.242,2-.593,2.853-.879.768-.259,1.777-.65,2.535-.939.85-.324,1.952-.833,2.773-1.225.683-.326,1.566-.814,2.236-1.165a30.009,30.009,0,0,0,2.611-1.608c.54-.367,1.251-.868,1.759-1.277.7-.562,1.6-1.354,2.26-1.956a21.808,21.808,0,0,0,2.148-2.355c.3-.371.673-.879.939-1.272.285-.422.659-.991.9-1.442.2-.37.477-.854.641-1.24.319-.751.73-1.762.965-2.543.172-.571.331-1.353.44-1.939a10.168,10.168,0,0,0,.155-1.258C80.319,75.1,80.369,74.336,80.336,73.764Z" transform="translate(-0.001 -49.618)" fill="#ffb657"/>
    </g>
    <path id="Path_23" data-name="Path 23" d="M32.616,59.546C47.2,51.364,70.5,51.6,84.674,60.072s13.841,21.971-.739,30.152S46.049,98.169,31.877,89.7,18.037,67.726,32.616,59.546Z" transform="translate(-18.093 -3.326)" fill="#f91"/>
    <path id="Path_24" data-name="Path 24" d="M68.242,76.416a39.025,39.025,0,0,1,10.589-4.353c3.61-.781,7.586,1.145,11.389,1.179s8.094-2.963,11.679-2.115c3.834.907,6.655,4.729,9.724,6.563,3.678,2.2,8.973,3.086,10.319,5.836,1.662,3.4-2.625,7.291-4.5,10.646-1.492,2.673-.9,8.817-4.627,10.906-3.128,1.756-8.678-1.623-12.516-.793-3.61.781-8.005,2.7-11.809,2.671s-5.926-3.924-9.51-4.772c-3.834-.907-8.536,2.322-11.6.487-3.678-2.2-4-6.39-5.344-9.14-1.662-3.4-4.332-6.733-2.459-10.087C61.067,80.772,64.519,78.5,68.242,76.416Z" transform="translate(-49.685 -18.008)" fill="#d07400"/>
    <path id="Path_25" data-name="Path 25" d="M12.055,91.991c-.566-.348-1.33-.8-1.866-1.193-1.007-.736-2.349-1.725-3.271-2.565a27.106,27.106,0,0,1-1.976-1.985,28.845,28.845,0,0,1-1.932-2.5,22.332,22.332,0,0,1-1.418-2.522A17.2,17.2,0,0,1,.769,79.12a14.97,14.97,0,0,1-.494-1.965C.217,76.78.127,76.282.093,75.9A16.762,16.762,0,0,1,0,74.184a23.133,23.133,0,0,1,.209-2.523,13.018,13.018,0,0,1,.44-1.939,22.91,22.91,0,0,1,.965-2.543c.2-.421.487-.973.719-1.378s.552-.927.819-1.3a26.015,26.015,0,0,1,1.821-2.316c.753-.82,1.831-1.844,2.67-2.575a31.26,31.26,0,0,1,2.614-1.969c.759-.52,1.814-1.15,2.611-1.608a1.64,1.64,0,0,1,1.651.191C-.055,64.4-.386,77.9,13.785,86.372s37.478,8.707,52.058.526,14.91-21.681.739-30.152S29.1,48.039,14.524,56.22a1.64,1.64,0,0,0-1.651-.191h0c.671-.35,1.553-.839,2.236-1.165.821-.392,1.931-.881,2.773-1.225,1.511-.616,3.58-1.307,5.151-1.752a58.019,58.019,0,0,1,5.8-1.316c.9-.157,2.1-.335,3-.449.886-.112,2.07-.246,2.961-.3s2.073-.157,2.964-.167,2.083-.045,2.976-.036,2.079.067,2.969.1,2.069.139,2.954.227,2.04.248,2.915.357,2.011.32,2.868.486,1.979.411,2.82.618c.819.2,1.906.5,2.715.738s1.885.611,2.689.886c.759.259,1.751.66,2.488.974.769.328,1.783.793,2.53,1.168.666.334,1.543.8,2.186,1.179.7.413,1.622,1,2.3,1.45a29.964,29.964,0,0,1,3.278,2.573c.547.5,1.246,1.2,1.754,1.742A15.744,15.744,0,0,1,76.3,63.4c.274.372.665.85.911,1.241a27.745,27.745,0,0,1,1.458,2.523,21.157,21.157,0,0,1,.857,2.12c.195.58.388,1.374.52,1.971a17.631,17.631,0,0,1,.3,2.507c.033.572-.017,1.338-.043,1.911a10.14,10.14,0,0,1-.155,1.258c-.109.586-.268,1.368-.44,1.939-.235.781-.646,1.792-.965,2.543-.164.386-.445.87-.641,1.24-.239.45-.612,1.02-.9,1.442-.266.393-.644.9-.939,1.272a21.827,21.827,0,0,1-2.148,2.355c-.664.6-1.561,1.394-2.26,1.956-.508.409-1.22.91-1.759,1.277a29.985,29.985,0,0,1-2.611,1.608c-.67.351-1.553.839-2.236,1.165-.821.392-1.923.9-2.773,1.225-.758.288-1.766.68-2.535.939-.848.286-1.99.637-2.853.879-1.647.461-3.884.924-5.563,1.25-.893.173-2.093.356-3,.449-.888.091-2.071.231-2.961.3s-2.073.156-2.964.167-2.083.045-2.976.036-2.079-.047-2.969-.1-2.073-.139-2.959-.227-2.04-.223-2.91-.356-2.011-.32-2.868-.486-1.979-.411-2.82-.618c-.819-.2-1.906-.5-2.715-.738s-1.884-.615-2.689-.886c-.76-.256-1.751-.66-2.488-.974-.769-.328-1.773-.813-2.53-1.168A29.375,29.375,0,0,1,12.055,91.991Z" transform="translate(-0.001 0)" fill="#fec377"/>
    <g id="Group_10" data-name="Group 10" transform="translate(31.858 60.905)">
      <path id="Path_26" data-name="Path 26" d="M211.449,121.555l-8.412,4.888-.028,5.1,8.494,4.888,8.384-4.889.027-5.1Z" transform="translate(-203.009 -121.555)" fill="#fed322"/>
      <path id="Path_27" data-name="Path 27" d="M265.552,152.705l-.027,5.1-8.384,4.889v-5.1Z" transform="translate(-248.646 -147.817)" fill="#fed322"/>
    </g>
    <path id="Path_28" data-name="Path 28" d="M211.5,157.6v5.1l-8.494-4.888.028-5.1Z" transform="translate(-171.151 -86.914)" fill="#feda44"/>
    <path id="Path_29" data-name="Path 29" d="M220.064,126.443l-8.412,4.889-8.467-4.888,8.412-4.888Z" transform="translate(-171.299 -60.65)" fill="#ffe577"/>
    <ellipse id="Ellipse_2" data-name="Ellipse 2" cx="3.051" cy="7.264" rx="3.051" ry="7.264" transform="translate(20.414 65.592) rotate(-113.317)" fill="#f18700"/>
  </g>
</svg>
