<svg xmlns="http://www.w3.org/2000/svg" width="88.018" height="64.274" viewBox="0 0 88.018 64.274">
  <g id="sandwich" transform="translate(0 -69.058)">
    <g id="Group_11" data-name="Group 11" transform="translate(3.092 82.408)">
      <path id="Path_30" data-name="Path 30" d="M99.819,155.569c0-.015,0-.031,0-.046l0-.762c0,.146-.006.292-.017.437-.166-2.145-1.658-4.25-4.494-5.889a22.079,22.079,0,0,0-10.821-2.592A21.917,21.917,0,0,0,73.7,149.31c-23.8,13.833,3.133-1.812-13.831,8.046l.06.035c-15.732,9.143-15.576,8.847-37.5,21.586-2.857,1.662-4.324,3.8-4.431,5.977,0-.046-.006-.092-.007-.138v.346c0,.025,0,.049,0,.074s0,.033,0,.049l0,.842c0,.243.015.566.034.808s.054.529.092.753c.052.3.141.7.217,1,.053.209.141.483.213.686a10.1,10.1,0,0,0,.691,1.538,10.533,10.533,0,0,0,.97,1.452c.107.138.256.318.375.447.1.107.228.252.329.356.117.12.274.279.4.392.215.2.506.455.733.637.307.245.417.323.826.609a14.3,14.3,0,0,0,1.32.794c.472.243.532.275.892.437.43.195.784.33.9.374A17.551,17.551,0,0,0,27.8,197c.391.1.649.163.922.216.139.027.325.067.465.091.278.048.65.108.929.148.72.1,1.562.157,1.873.167.282.009.658.024.94.021.141,0,.329,0,.47-.005s.329-.011.47-.016.329-.017.47-.026c.313-.021.313-.021.937-.084.14-.014.326-.04.466-.058.264-.033.543-.081.931-.148,0,0,.417-.074.931-.2.276-.065.642-.161.914-.24a16.981,16.981,0,0,0,1.837-.648c.158-.067.488-.206.906-.414.264-.131.607-.321.864-.464h0c4.047-2.352,52-30.055,52-30.055h0a13.691,13.691,0,0,0,1.309-.863c.134-.1.312-.236.44-.344.222-.188.516-.444.726-.645a11.738,11.738,0,0,0,.816-.873c.184-.229.424-.54.6-.779.114-.159.252-.379.354-.545s.242-.411.334-.594c.134-.269.3-.635.417-.911.085-.2.175-.474.243-.68.048-.145.1-.342.141-.489.061-.217.119-.512.161-.733.029-.152.059-.356.078-.51.028-.219.051-.512.065-.732.01-.155.009-.363.013-.518v-.434C99.817,155.615,99.819,155.592,99.819,155.569Z" transform="translate(-17.985 -146.717)" fill="#f18700"/>
      <path id="Path_31" data-name="Path 31" d="M18,368.341v.346c0-.069,0-.139.007-.208C18.007,368.433,18,368.387,18,368.341Z" transform="translate(-17.998 -330.242)" fill="#f18700"/>
      <path id="Path_32" data-name="Path 32" d="M493.931,193.508c0,.146-.005.292-.017.437q.013.162.015.324Z" transform="translate(-412.097 -185.464)" fill="#f18700"/>
      <path id="Path_33" data-name="Path 33" d="M95.378,204.8C72.3,218.214,66.773,221.3,44.11,234.471c-.2.119-.414.232-.626.343v.4c0,.048,0,.095,0,.141,0-.047,0-.094,0-.141v-.4a22.446,22.446,0,0,1-10.166,2.25A22.081,22.081,0,0,1,22.5,234.472c-2.978-1.721-4.474-3.955-4.509-6.21l0,.842c0,.243.015.566.034.808s.054.529.092.753c.052.3.141.7.217,1,.053.209.141.483.213.686a10.105,10.105,0,0,0,.691,1.538,10.532,10.532,0,0,0,.97,1.452c.107.138.256.318.375.447.1.107.228.252.329.356.117.12.274.279.4.392.215.2.506.455.733.637.307.245.417.322.826.609a14.3,14.3,0,0,0,1.32.794c.472.243.532.275.892.437.43.195.784.33.9.374a17.557,17.557,0,0,0,1.824.582c.391.1.649.163.922.216.139.027.325.067.464.091.278.048.65.108.929.148.72.1,1.562.157,1.873.167.282.009.658.024.94.021.141,0,.329,0,.47-.005s.329-.011.47-.016.329-.017.47-.026c.313-.021.313-.021.937-.084.14-.014.326-.04.466-.058.264-.033.543-.081.931-.148,0,0,.417-.074.931-.2.276-.065.642-.161.914-.24a16.981,16.981,0,0,0,1.837-.648c.158-.067.488-.206.906-.414.264-.131.607-.321.864-.464h0c4.047-2.352,52-30.055,52-30.055h0a13.668,13.668,0,0,0,1.309-.863c.134-.1.312-.236.44-.344.222-.188.516-.444.726-.645a11.741,11.741,0,0,0,.816-.873c.184-.229.424-.54.6-.779.114-.159.252-.379.354-.545s.242-.411.334-.594c.134-.269.3-.635.417-.911.085-.2.175-.474.243-.68.048-.145.1-.342.141-.489.061-.217.119-.512.161-.733.029-.152.059-.356.078-.51.028-.219.051-.512.065-.732.01-.155.009-.363.013-.518v-.434C99.8,200.862,98.328,203.088,95.378,204.8Z" transform="translate(-17.985 -189.692)" fill="#f18700"/>
    </g>
    <path id="Path_34" data-name="Path 34" d="M22.5,191.5a22.081,22.081,0,0,0,10.821,2.593,22.447,22.447,0,0,0,10.166-2.25h0c.212-.111.422-.224.626-.343,22.663-13.17,28.193-16.258,51.268-29.668,2.95-1.716,4.42-3.942,4.439-6.19,0-.023,0-.047,0-.07s0-.031,0-.046c0-.108-.007-.216-.015-.324-.166-2.145-1.658-4.25-4.494-5.889a22.079,22.079,0,0,0-10.821-2.592,21.917,21.917,0,0,0-10.792,2.593c-23.8,13.833,3.133-1.812-13.831,8.046l.06.035c-15.732,9.143-15.576,8.847-37.5,21.586-2.857,1.662-4.324,3.8-4.431,5.977,0,.069-.007.139-.007.208,0,.025,0,.049,0,.074s0,.033,0,.049C18.021,187.541,19.517,189.776,22.5,191.5Z" transform="translate(-14.892 -64.309)" fill="#fedaaa"/>
    <path id="Path_35" data-name="Path 35" d="M81.969,131.693h0c-1.72-.993-6.516.708-8.628.2a3.3,3.3,0,0,1-.881-.362,9.927,9.927,0,0,1-1.766-1.445,9.845,9.845,0,0,0-1.76-1.443,2.908,2.908,0,0,0-1.471-.428c-2.33,0-3.651,3.154-5.837,3.678-2.106.506-6.92-1.2-8.631-.2-5.88,3.417-2.2,5.543-8.078,8.96s-9.562,1.291-15.443,4.709-2.2,5.543-8.078,8.96-9.562,1.291-15.443,4.709c-1.709.993,1.245,3.777.377,5-.9,1.267-6.338,2.043-6.331,3.392,0,.309.29.589.744.851a16.317,16.317,0,0,0,2.5,1.015,16.34,16.34,0,0,1,2.5,1.019,2,2,0,0,1,.626.508c.88,1.222-2.042,4.005-.321,5s6.516-.708,8.628-.2a3.292,3.292,0,0,1,.879.361,9.929,9.929,0,0,1,1.767,1.447,9.883,9.883,0,0,0,1.76,1.442,2.909,2.909,0,0,0,1.472.428c2.33,0,3.652-3.154,5.837-3.678,2.107-.505,6.921,1.2,8.631.2,5.88-3.417,2.2-5.543,8.078-8.96s9.562-1.291,15.444-4.709,2.2-5.543,8.078-8.96,9.561-1.291,15.441-4.708c1.711-.994-1.243-3.776-.377-5,.9-1.268,6.34-2.043,6.331-3.393,0-.31-.29-.589-.744-.851a16.231,16.231,0,0,0-2.5-1.014,16.316,16.316,0,0,1-2.5-1.019,2,2,0,0,1-.627-.509c-.88-1.222,2.043-4,.321-5" transform="translate(0 -48.989)" fill="#c3fb3a"/>
    <g id="Group_12" data-name="Group 12" transform="translate(52.987 80.861)">
      <path id="Path_36" data-name="Path 36" d="M337.279,146.249c.042-2.194-1.387-4.4-4.285-6.071-5.69-3.285-14.885-3.285-20.538,0-2.817,1.637-4.223,3.782-4.22,5.927,0-.007,0-.014,0-.021l-.012,3.047c-.006,2.167,1.424,4.337,4.287,5.99,5.69,3.285,14.885,3.285,20.538,0,2.808-1.632,4.214-3.768,4.22-5.907l.012-3.047C337.281,146.2,337.28,146.222,337.279,146.249Z" transform="translate(-308.223 -137.715)" fill="#cd2a01"/>
      <path id="Path_37" data-name="Path 37" d="M337.283,186.489l-.012,3.047c-.006,2.139-1.412,4.275-4.22,5.907-5.653,3.285-14.848,3.285-20.538,0-2.863-1.653-4.293-3.823-4.287-5.99l.012-3.047c-.006,2.167,1.424,4.337,4.287,5.99,5.69,3.285,14.885,3.285,20.538,0C335.871,190.764,337.277,188.628,337.283,186.489Z" transform="translate(-308.225 -178.035)" fill="#cd2a01"/>
    </g>
    <path id="Path_38" data-name="Path 38" d="M333.054,140.178c5.69,3.285,5.72,8.612.067,11.9s-14.848,3.285-20.538,0-5.72-8.611-.067-11.9S327.364,136.893,333.054,140.178Z" transform="translate(-255.297 -56.854)" fill="#ff3502"/>
    <g id="Group_13" data-name="Group 13" transform="translate(31.439 92.793)">
      <path id="Path_39" data-name="Path 39" d="M211.937,215.656c.042-2.194-1.386-4.4-4.285-6.071-5.69-3.285-14.885-3.285-20.538,0-2.817,1.637-4.223,3.782-4.22,5.927,0-.007,0-.014,0-.021l-.012,3.047c-.006,2.167,1.424,4.337,4.287,5.99,5.69,3.285,14.885,3.285,20.538,0,2.808-1.632,4.214-3.768,4.22-5.907l.012-3.047C211.939,215.6,211.938,215.629,211.937,215.656Z" transform="translate(-182.881 -207.122)" fill="#cd2a01"/>
      <path id="Path_40" data-name="Path 40" d="M211.938,255.9l-.012,3.047c-.006,2.139-1.412,4.275-4.22,5.907-5.653,3.285-14.848,3.285-20.538,0-2.863-1.653-4.293-3.823-4.287-5.99l.012-3.047c-.006,2.167,1.424,4.337,4.287,5.99,5.69,3.285,14.885,3.285,20.538,0C210.526,260.172,211.932,258.036,211.938,255.9Z" transform="translate(-182.88 -247.443)" fill="#cd2a01"/>
    </g>
    <path id="Path_41" data-name="Path 41" d="M207.712,209.585c5.69,3.285,5.72,8.612.067,11.9s-14.848,3.285-20.538,0-5.72-8.611-.067-11.9S202.022,206.3,207.712,209.585Z" transform="translate(-151.502 -114.329)" fill="#ff3502"/>
    <g id="Group_14" data-name="Group 14" transform="translate(9.967 105.237)">
      <path id="Path_42" data-name="Path 42" d="M87.037,288.044c.042-2.194-1.386-4.4-4.285-6.071-5.69-3.285-14.885-3.285-20.538,0-2.817,1.637-4.223,3.781-4.22,5.927,0-.007,0-.014,0-.021l-.012,3.047c-.006,2.167,1.424,4.337,4.287,5.99,5.69,3.285,14.885,3.285,20.538,0,2.808-1.632,4.214-3.768,4.22-5.907l.012-3.047C87.039,287.99,87.037,288.017,87.037,288.044Z" transform="translate(-57.981 -279.509)" fill="#cd2a01"/>
      <path id="Path_43" data-name="Path 43" d="M87.038,328.283l-.012,3.047c-.006,2.139-1.412,4.275-4.22,5.907-5.653,3.285-14.848,3.285-20.538,0-2.863-1.653-4.293-3.823-4.287-5.99l.012-3.047c-.006,2.167,1.424,4.337,4.287,5.99,5.69,3.285,14.885,3.285,20.538,0C85.626,332.558,87.032,330.422,87.038,328.283Z" transform="translate(-57.98 -319.829)" fill="#cd2a01"/>
    </g>
    <path id="Path_44" data-name="Path 44" d="M82.811,281.973c5.69,3.285,5.72,8.611.067,11.9s-14.848,3.285-20.538,0-5.72-8.611-.067-11.9S77.121,278.688,82.811,281.973Z" transform="translate(-48.073 -174.273)" fill="#ff3502"/>
    <path id="Path_45" data-name="Path 45" d="M87.208,89.9,70,79.9a19.644,19.644,0,0,0-6.538,6.567,14.68,14.68,0,0,1-4.979,5.066c-2.45,1.414-3.628,1.078-4.991.69-1.518-.431-3.239-.922-6.554.991A19.643,19.643,0,0,0,40.4,99.779a14.679,14.679,0,0,1-4.979,5.066c-2.448,1.413-3.626,1.077-4.991.69-1.516-.432-3.237-.924-6.552.99a19.643,19.643,0,0,0-6.538,6.567,14.679,14.679,0,0,1-4.979,5.066c-2.448,1.413-3.626,1.077-4.989.689-1.518-.431-3.237-.924-6.554.991l.008,2.987,17.21,10c2.45-1.414,3.628-1.078,4.991-.69,1.516.432,3.237.924,6.552-.99a19.643,19.643,0,0,0,6.538-6.567,14.679,14.679,0,0,1,4.979-5.066c2.448-1.413,3.626-1.077,4.991-.69,1.516.432,3.237.924,6.552-.99a19.643,19.643,0,0,0,6.538-6.567,14.68,14.68,0,0,1,4.979-5.066c2.448-1.413,3.628-1.078,4.991-.69,1.518.431,3.237.924,6.554-.991a19.642,19.642,0,0,0,6.538-6.567,14.679,14.679,0,0,1,4.979-5.066Z" transform="translate(-0.676 -8.976)" fill="#c60024"/>
    <path id="Path_46" data-name="Path 46" d="M18.034,325.229l-17.21-10L.816,312.24l17.21,10Z" transform="translate(-0.676 -201.377)" fill="#fe0b37"/>
    <path id="Path_47" data-name="Path 47" d="M18.026,129.84l-17.21-10c3.317-1.915,5.036-1.423,6.554-.991,1.364.388,2.542.724,4.989-.689a14.681,14.681,0,0,0,4.979-5.066,19.641,19.641,0,0,1,6.538-6.567c3.315-1.914,5.036-1.423,6.552-.99,1.365.387,2.544.723,4.991-.69A14.681,14.681,0,0,0,40.4,99.779a19.641,19.641,0,0,1,6.538-6.567c3.315-1.914,5.036-1.423,6.554-.991,1.364.388,2.542.724,4.991-.69a14.681,14.681,0,0,0,4.979-5.066A19.641,19.641,0,0,1,70,79.9l17.21,10a19.643,19.643,0,0,0-6.538,6.567,14.68,14.68,0,0,1-4.979,5.066c-2.45,1.414-3.628,1.078-4.991.69-1.518-.431-3.239-.922-6.554.991a19.643,19.643,0,0,0-6.538,6.567,14.679,14.679,0,0,1-4.979,5.066c-2.448,1.413-3.626,1.077-4.991.69-1.516-.432-3.237-.924-6.552.99a19.643,19.643,0,0,0-6.538,6.567,14.68,14.68,0,0,1-4.979,5.066c-2.448,1.413-3.626,1.077-4.989.689C23.062,128.418,21.343,127.926,18.026,129.84Z" transform="translate(-0.676 -8.976)" fill="#ff3e61"/>
    <path id="Path_48" data-name="Path 48" d="M170.108,138.075l.008,2.987a14.684,14.684,0,0,0-4.979,5.066A19.641,19.641,0,0,1,158.6,152.7c-3.317,1.915-5.036,1.423-6.554.991-1.364-.388-2.544-.723-4.991.69a14.681,14.681,0,0,0-4.979,5.066,19.641,19.641,0,0,1-6.538,6.567c-3.315,1.914-5.036,1.423-6.552.99-1.365-.387-2.544-.723-4.991.69a14.681,14.681,0,0,0-4.979,5.066,19.64,19.64,0,0,1-6.538,6.567c-3.315,1.914-5.036,1.423-6.552.99-1.364-.388-2.542-.724-4.991.69l-.008-2.987c3.317-1.915,5.036-1.423,6.554-.991,1.364.388,2.542.724,4.989-.689a14.681,14.681,0,0,0,4.979-5.066,19.642,19.642,0,0,1,6.538-6.567c3.315-1.914,5.036-1.423,6.552-.99,1.365.387,2.544.723,4.991-.69a14.681,14.681,0,0,0,4.979-5.066,19.642,19.642,0,0,1,6.538-6.567c3.315-1.914,5.036-1.423,6.554-.991,1.364.388,2.542.724,4.991-.69a14.681,14.681,0,0,0,4.979-5.066A19.64,19.64,0,0,1,170.108,138.075Z" transform="translate(-83.576 -57.152)" fill="#c60024"/>
    <path id="Path_49" data-name="Path 49" d="M99.8,79.764c-.011-.156-.035-.364-.057-.52a9.865,9.865,0,0,0-.309-1.44c-.043-.146-.1-.339-.156-.482-.07-.194-.165-.453-.25-.641-.124-.273-.3-.632-.44-.9-.091-.171-.227-.39-.329-.554s-.235-.361-.345-.508c-.176-.235-.421-.541-.609-.767,0,0-.379-.438-.788-.819-.213-.2-.509-.451-.733-.637-.124-.1-.3-.231-.427-.327s-.3-.217-.432-.3c-.247-.161-.581-.369-.834-.521l-.047-.025.047.025c-.389-.224-.694-.378-.89-.474-.482-.237-.906-.41-.911-.412-.211-.085-.6-.244-.9-.344-.135-.045-.314-.109-.451-.15-.611-.186-.675-.205-.915-.265-.543-.135-.672-.167-.922-.216-.139-.027-.325-.067-.464-.091-.524-.09-.682-.117-.93-.148-.14-.018-.326-.043-.466-.058-.62-.062-.62-.062-.937-.084-.174-.012-.706-.047-1.41-.047-.267,0-.8.007-1.41.047s-.918.08-1.4.141c-.25.031-.394.056-.931.148-.14.024-.326.064-.466.092-.251.049-.38.082-.924.217-.241.06-.292.076-.918.267-.136.042-.315.105-.45.151-.3.1-.663.249-.906.348-.017.007-.415.169-.924.421-.264.131-.607.321-.864.465l.015-.008-.015.008c-13.764,8-5.45,2.962-19.214,10.961.215-.125.442-.242.677-.352l-13.335,7.75-3.977,2.311-4.009,2.33L23.7,101.41l.015-.008-.015.008a13.66,13.66,0,0,0-1.309.863c-.134.1-.312.236-.44.344-.222.188-.516.444-.726.645a11.692,11.692,0,0,0-.816.873c-.184.229-.424.54-.6.779-.114.159-.252.379-.354.545s-.242.411-.334.594c-.134.269-.3.635-.417.911-.084.2-.175.474-.243.68-.048.145-.1.342-.141.489-.061.217-.119.512-.161.733-.029.152-.059.356-.078.51-.028.219-.051.512-.065.731-.01.155-.009.363-.013.518.012,2.211,1.481,4.422,4.4,6.109a21.585,21.585,0,0,0,10.561,2.53A21.421,21.421,0,0,0,43.5,116.734h0l18.511-10.552c0-.014,0-.028,0-.042L95.5,86.679c2.9-1.687,4.347-3.9,4.335-6.109C99.832,80.329,99.818,80.006,99.8,79.764Z" transform="translate(-14.91)" fill="#f91"/>
    <g id="Group_15" data-name="Group 15" transform="translate(17.682 72.404)">
      <path id="Path_50" data-name="Path 50" d="M109.605,223.8a30.573,30.573,0,0,0-4.044-5.75l-2.7,1.572a27.408,27.408,0,0,0,2.276,5.841,32.781,32.781,0,0,0,7.591,9.22A27.462,27.462,0,0,0,109.605,223.8Z" transform="translate(-102.857 -195.779)" fill="#fedaaa"/>
      <path id="Path_51" data-name="Path 51" d="M327.026,90.117a27.362,27.362,0,0,0,2.24,5.708,32.746,32.746,0,0,0,7.591,9.22,27.444,27.444,0,0,0-3.12-10.882,30.41,30.41,0,0,0-3.949-5.642C328.711,89.146,327.8,89.67,327.026,90.117Z" transform="translate(-288.489 -88.521)" fill="#fedaaa"/>
      <path id="Path_52" data-name="Path 52" d="M254.4,138.592a32.78,32.78,0,0,0,7.59,9.22,27.461,27.461,0,0,0-3.118-10.882,30.576,30.576,0,0,0-4.062-5.77c-.763.439-1.649.951-2.695,1.557A27.441,27.441,0,0,0,254.4,138.592Z" transform="translate(-226.453 -123.829)" fill="#fedaaa"/>
      <path id="Path_53" data-name="Path 53" d="M179.785,182.075a32.746,32.746,0,0,0,7.591,9.22,27.445,27.445,0,0,0-3.119-10.882,30.533,30.533,0,0,0-4.043-5.75l-2.7,1.571A27.451,27.451,0,0,0,179.785,182.075Z" transform="translate(-164.676 -159.854)" fill="#fedaaa"/>
    </g>
  </g>
</svg>
