<svg xmlns="http://www.w3.org/2000/svg" width="50" height="50" viewBox="0 0 50 50">
  <g id="shuffle" transform="translate(-1767 -1760)">
    <g id="plus" transform="translate(1767 1760)">
      <circle id="Ellipse_1" data-name="Ellipse 1" cx="25" cy="25" r="25" fill="#43b05c"/>
    </g>
    <g id="refresh" transform="translate(1776.719 1769.722)">
      <g id="Group_28" data-name="Group 28" transform="translate(1.726)">
        <g id="Group_27" data-name="Group 27">
          <path id="Path_98" data-name="Path 98" d="M56.679,4.315a1.222,1.222,0,0,0-1.328,1.106L55.19,7.2A15.423,15.423,0,0,0,28.371,8.483a1.222,1.222,0,1,0,2.176,1.111,12.989,12.989,0,0,1,22.6-1.078L51.4,7.272a1.222,1.222,0,1,0-1.42,1.988l5.283,3.773a1.223,1.223,0,0,0,1.927-.883l.593-6.508A1.222,1.222,0,0,0,56.679,4.315Z" transform="translate(-28.237)" fill="#f9f1f1"/>
        </g>
      </g>
      <g id="Group_30" data-name="Group 30" transform="translate(0.001 18.016)">
        <g id="Group_29" data-name="Group 29">
          <path id="Path_99" data-name="Path 99" d="M28.887,298.048a1.222,1.222,0,0,0-1.644.532,12.989,12.989,0,0,1-22.6,1.078L6.389,300.9a1.222,1.222,0,0,0,1.42-1.988l-5.283-3.773a1.223,1.223,0,0,0-1.927.883l-.593,6.508a1.222,1.222,0,1,0,2.433.222l.162-1.776a15.423,15.423,0,0,0,26.818-1.286A1.222,1.222,0,0,0,28.887,298.048Z" transform="translate(-0.001 -294.913)" fill="#f9f1f1"/>
        </g>
      </g>
    </g>
  </g>
</svg>
