<svg xmlns="http://www.w3.org/2000/svg" width="67.569" height="64.619" viewBox="0 0 67.569 64.619">
  <path id="star" d="M37.048,3.075l7.621,15.442a3.638,3.638,0,0,0,2.74,1.99L64.45,22.984a3.638,3.638,0,0,1,2.017,6.206L54.136,41.21A3.639,3.639,0,0,0,53.09,44.43L56,61.4a3.639,3.639,0,0,1-5.28,3.837L35.479,57.227a3.643,3.643,0,0,0-3.387,0L16.85,65.24A3.639,3.639,0,0,1,11.57,61.4L14.481,44.43a3.639,3.639,0,0,0-1.046-3.221L1.1,29.19A3.638,3.638,0,0,1,3.12,22.984l17.042-2.476a3.638,3.638,0,0,0,2.74-1.99L30.523,3.075A3.637,3.637,0,0,1,37.048,3.075Z" transform="translate(-0.001 -1.047)" fill="#ed8a19"/>
</svg>
