<svg xmlns="http://www.w3.org/2000/svg" width="92.515" height="64.619" viewBox="0 0 92.515 64.619">
  <g id="steak" transform="translate(0 -77.19)">
    <g id="Group_16" data-name="Group 16" transform="translate(0 77.19)">
      <path id="Path_54" data-name="Path 54" d="M92.514,108.842c.025-6.97-12.177-15.283-19.643-19.594-16.326-9.426-33.81-13.706-42.49-11.479C24.6,79.251,20.266,81.975,20.087,91.6c-.065,3.531-2.2,6.935-6.67,9.328C4.964,105.448.013,110.9.032,116.073c0-.018,0-.035,0-.053L0,126.924a8.4,8.4,0,0,0,1.5,4.743,15.41,15.41,0,0,0,5.237,4.613c10.269,5.929,30.677,7.379,50.726,2.932,15.277-3.388,29.168-10,34.088-16.373a5.615,5.615,0,0,0,.936-3.1l.031-10.9A.042.042,0,0,0,92.514,108.842Z" transform="translate(0 -77.19)" fill="#d07400"/>
      <path id="Path_55" data-name="Path 55" d="M91.578,255.431c-4.92,6.375-18.812,12.984-34.088,16.373-20.048,4.447-40.456,3-50.726-2.932a15.41,15.41,0,0,1-5.237-4.613,8.4,8.4,0,0,1-1.5-4.743L0,270.419a8.4,8.4,0,0,0,1.5,4.743,15.41,15.41,0,0,0,5.237,4.613C17,285.7,37.411,287.154,57.459,282.707c15.277-3.388,29.168-10,34.088-16.373a5.615,5.615,0,0,0,.936-3.1l.031-10.9A5.617,5.617,0,0,1,91.578,255.431Z" transform="translate(0 -220.685)" fill="#d07400"/>
    </g>
    <path id="Path_56" data-name="Path 56" d="M73.013,89.248c8.611,4.972,23.523,15.269,18.707,22.688-4.92,6.375-18.812,12.984-34.088,16.373-20.048,4.447-40.456,3-50.726-2.932a15.411,15.411,0,0,1-5.237-4.613c-4.251-6.385.815-13.913,11.889-19.84,4.471-2.393,6.605-5.8,6.67-9.328.179-9.62,4.518-12.344,10.295-13.827C39.2,75.542,56.687,79.823,73.013,89.248Z" transform="translate(-0.141 0)" fill="#f18700"/>
    <path id="Path_57" data-name="Path 57" d="M47.146,140.916c-10.843,0-20.312-1.877-25.98-5.149a12.641,12.641,0,0,1-4.3-3.73,5.453,5.453,0,0,1-.84-4.562c.911-3.63,5.179-7.716,11.708-11.211,5.176-2.771,8.076-6.951,8.166-11.772.07-3.778.835-6.442,2.338-8.142,1.2-1.359,2.944-2.254,5.829-2.994a18.741,18.741,0,0,1,4.584-.49c9.451,0,23.5,4.584,35.785,11.678,10.181,5.878,17.121,12.091,18.111,16.212a2.966,2.966,0,0,1-.308,2.392c-4.538,5.754-17.816,12.008-32.382,15.238A106.61,106.61,0,0,1,47.146,140.916Z" transform="translate(-12.986 -12.842)" fill="#a66206"/>
    <path id="Path_58" data-name="Path 58" d="M132.37,122.487c-12.43-7.219-23.593-12.443-24.935-11.668-1.2.694,5.874,5.96,16.286,12.234a.859.859,0,0,1-.011,1.617c-12.986,7.594-38.585,23.609-37.29,24.361S115.431,135,128.577,127.5a3.124,3.124,0,0,1,2.792,0c10.8,6.048,19.875,10.16,21.077,9.466C153.788,136.187,144.8,129.706,132.37,122.487Z" transform="translate(-70.765 -27.49)" fill="#fedaaa"/>
  </g>
</svg>
