<svg xmlns="http://www.w3.org/2000/svg" width="55.6" height="55.603" viewBox="0 0 55.6 55.603">
  <g id="user" transform="translate(0 0)">
    <path id="Path_14" data-name="Path 14" d="M19.064,43.2l-8.3,4.525a7.455,7.455,0,0,0-1.331.947,27.784,27.784,0,0,0,35.7.092,7.36,7.36,0,0,0-1.462-.98L34.79,43.343a3.387,3.387,0,0,1-1.873-3.03V36.828a13.416,13.416,0,0,0,.84-1.081,20.439,20.439,0,0,0,2.761-5.564A2.79,2.79,0,0,0,38.5,27.529v-3.72a2.777,2.777,0,0,0-.93-2.061V16.37S38.672,8,27.339,8,17.11,16.37,17.11,16.37v5.378a2.773,2.773,0,0,0-.93,2.061v3.72a2.789,2.789,0,0,0,1.286,2.341,18.461,18.461,0,0,0,3.363,6.959v3.4A3.391,3.391,0,0,1,19.064,43.2Z" transform="translate(0.463 0.393)" fill="#e7eced"/>
    <g id="Group_8" data-name="Group 8" transform="translate(0 0)">
      <path id="Path_15" data-name="Path 15" d="M28.277,0A27.784,27.784,0,0,0,9.912,49.056a7.387,7.387,0,0,1,1.319-.938l8.3-4.525a3.389,3.389,0,0,0,1.766-2.974v-3.4a18.443,18.443,0,0,1-3.363-6.959,2.79,2.79,0,0,1-1.286-2.341V24.2a2.777,2.777,0,0,1,.93-2.061V16.762S16.467,8.393,27.8,8.393s10.229,8.369,10.229,8.369v5.378a2.773,2.773,0,0,1,.93,2.061v3.72a2.79,2.79,0,0,1-1.979,2.654,20.439,20.439,0,0,1-2.761,5.564,13.416,13.416,0,0,1-.84,1.081v3.485a3.386,3.386,0,0,0,1.873,3.03l8.883,4.441a7.4,7.4,0,0,1,1.458.978A27.795,27.795,0,0,0,28.277,0Z" transform="translate(0 0)" fill="#556080"/>
    </g>
  </g>
</svg>
